# xmcd
#
# Track frame offsets: 
#        150
#        22442
#        44460
#        66807
#        80930
#        101845
#        121890
#        142005
#        154382
#        169310
#
# Disc length: 2535 seconds
#
# Revision: 0
# Processed by: cddbd v1.5.2PL0 Copyright (c) Steve Scherf et al.
# Submitted via: ExactAudioCopy v1.3
#
DISCID=9a09e50a
DTITLE=山本光男 - ゴーゴーヘブン!!【イメージアルバム】
DYEAR=1995
DGENRE=Image Album
TTITLE0=日高のり子 - 朝も、昼も、夜も。【プリンスのテーマ】
TTITLE1=INNOCENT OF CRIME
TTITLE2=緑川光 - それでも僕は幸せさ【グリーンのテーマ】
TTITLE3=FANNY LITTLE WORLD
TTITLE4=田中真弓 - 0 -ZERO-【小姓のテーマ】
TTITLE5=HEAVEN'S AIR
TTITLE6=井上和彦 - 堕天使達の夜【ブルーのテーマ】
TTITLE7=ISOLATION
TTITLE8=DAYBREAK
TTITLE9=横山美佐 - True～時空を越えて～【白雪のテーマ】
EXTD=
EXTT0=
EXTT1=
EXTT2=
EXTT3=
EXTT4=
EXTT5=
EXTT6=
EXTT7=
EXTT8=
EXTT9=
PLAYORDER=
